<svg id="Layer_1" data-name="Layer 1" xmlns="http://www.w3.org/2000/svg" viewBox="0 0 250 250"><defs><style>.cls-1{fill:#b3d4ff;}.cls-2,.cls-4{opacity:0.06;}.cls-3,.cls-4{fill:#0562e8;}.cls-5,.cls-8{fill:none;stroke:#4c9aff;stroke-miterlimit:10;}.cls-6{fill:#d2e4f9;}.cls-7{fill:#fff;}.cls-8{stroke-linecap:round;}</style></defs><title>Recent_Your-Test_Upcoming</title><rect class="cls-1" x="63.35" y="25.66" width="107.2" height="5.39"/><g class="cls-2"><path class="cls-3" d="M138.48,191.43c-24.3-9.91-101.26,39-95.23-27.79.94-9.92,5.94-23.94,1.71-33.21-3.06-6.94-8.67-11-14.09-13.7C16.71,109.37,11.43,95.57,15,75.87c9.59-53.09,61.82-40.5,89.23-24.76,19.5,11.71,42.49,13.73,62.68,3.82,15.82-8.07,25.68-25,44.24-20,16.47,4.22,19,24.08,14.14,42.56-2.73,11.44-4.69,16.27.73,27.31,4.56,11,12.6,19.27,13.22,32.11.13,13.91-4.87,27.93-14.55,33.2-7.93,4.31-15.11,2.57-23,5.22-17.43,6.26-28.63,40.86-50.26,29-5.39-3.25-8.43-10.75-14.3-12.93"/></g><circle class="cls-4" cx="75.2" cy="218.08" r="6.03"/><circle class="cls-4" cx="22.22" cy="134.15" r="7.98"/><circle class="cls-4" cx="35.84" cy="142.54" r="5.64"/><circle class="cls-4" cx="24.71" cy="149.82" r="2.5"/><circle class="cls-4" cx="62.09" cy="214.17" r="3.91"/><circle class="cls-4" cx="201.83" cy="207.59" r="6.03"/><circle class="cls-4" cx="236.55" cy="103.81" r="5"/><circle class="cls-4" cx="231.2" cy="88.72" r="5"/><circle class="cls-4" cx="152.33" cy="49.76" r="5"/><circle class="cls-4" cx="17.68" cy="42.65" r="6.11"/><circle class="cls-4" cx="26.42" cy="34.71" r="1.83"/><circle class="cls-4" cx="241.54" cy="93.09" r="2.51"/><circle class="cls-4" cx="164.81" cy="45.82" r="2.51"/><circle class="cls-4" cx="191.33" cy="199.76" r="3.91"/><circle class="cls-4" cx="201.83" cy="193.5" r="2.54"/><path class="cls-1" d="M98.7,215.88V123.22s-.92-7-5.48-7H196.46s8.63.6,8.63,8.63v91.06Z"/><path class="cls-1" d="M63.35,31.05V133.19s-.25,8.89,5.28,8.89c0,0,8.13,0,8.13-9.47s0-8.67,0-8.67.11-7.75,9.77-7.75h84V31.05Z"/><path class="cls-5" d="M94,124.82v17.27H68.13a8.62,8.62,0,0,0,8.63-8.62v-8.65a8.64,8.64,0,0,1,17.27,0Z"/><path class="cls-5" d="M205.09,124.82v86.05H94V124.82a8.63,8.63,0,0,0-8.63-8.63H196.46A8.63,8.63,0,0,1,205.09,124.82Z"/><path class="cls-5" d="M170.54,31.05v85.14H85.4a8.63,8.63,0,0,0-8.64,8.63v8.65a8.64,8.64,0,0,1-17.28,0V31.05Z"/><rect class="cls-6" x="106.69" y="133.19" width="19" height="22.26" rx="1.38" transform="translate(232.38 288.64) rotate(180)"/><rect class="cls-5" x="106.69" y="133.19" width="22.26" height="22.26" rx="1.38" transform="translate(235.65 288.64) rotate(180)"/><rect class="cls-7" x="134.27" y="137.57" width="62.34" height="5.31"/><rect class="cls-7" x="134.27" y="145.76" width="31.17" height="5.31"/><rect class="cls-6" x="106.69" y="163.53" width="19" height="22.26" rx="1.38" transform="translate(232.38 349.32) rotate(180)"/><rect class="cls-5" x="106.69" y="163.53" width="22.26" height="22.26" rx="1.38" transform="translate(235.65 349.32) rotate(180)"/><rect class="cls-7" x="134.27" y="167.91" width="62.34" height="5.31"/><rect class="cls-7" x="134.27" y="176.1" width="31.17" height="5.31"/><rect class="cls-7" x="116.78" y="166.59" width="2.09" height="16.13" transform="translate(158.01 -32.16) rotate(45)"/><rect class="cls-7" x="116.78" y="166.59" width="2.09" height="16.13" transform="translate(324.63 214.83) rotate(135)"/><circle class="cls-5" cx="115.01" cy="75.34" r="33.68"/><rect class="cls-7" x="113.9" y="47.55" width="2.8" height="28"/><rect class="cls-7" x="125.8" y="63.65" width="2.8" height="23.8" transform="translate(202.75 -51.66) rotate(90)"/><rect class="cls-7" x="113.9" y="39.54" width="2.45" height="4.6"/><rect class="cls-7" x="113.9" y="106.72" width="2.45" height="4.6"/><rect class="cls-7" x="147.49" y="73.13" width="2.45" height="4.6" transform="translate(224.15 -73.29) rotate(90)"/><rect class="cls-7" x="80.32" y="73.13" width="2.45" height="4.6" transform="translate(156.97 -6.11) rotate(90)"/><rect class="cls-7" x="131.53" y="44.54" width="2.45" height="4.6" transform="translate(44.33 -62.7) rotate(31.65)"/><rect class="cls-7" x="96.28" y="101.72" width="2.45" height="4.6" transform="translate(69.09 -35.69) rotate(31.65)"/><rect class="cls-7" x="142.49" y="90.75" width="2.45" height="4.6" transform="translate(298.35 19.54) rotate(121.65)"/><rect class="cls-7" x="85.31" y="55.51" width="2.45" height="4.6" transform="translate(181.16 14.47) rotate(121.65)"/><rect class="cls-7" x="143.91" y="58.04" width="2.45" height="4.6" transform="translate(133.84 -96.43) rotate(63.3)"/><rect class="cls-7" x="83.9" y="88.22" width="2.45" height="4.6" transform="translate(127.75 -26.2) rotate(63.3)"/><rect class="cls-7" x="128.99" y="103.14" width="2.45" height="4.6" transform="translate(293.93 141.13) rotate(153.3)"/><rect class="cls-7" x="98.81" y="43.12" width="2.45" height="4.6" transform="translate(209.82 41.06) rotate(153.3)"/><rect class="cls-5" x="59.48" y="25.66" width="111.06" height="5.39"/><rect class="cls-5" x="94.04" y="210.51" width="111.05" height="5.38"/><path class="cls-7" d="M117.82,137.57a6.76,6.76,0,1,0,6.76,6.75A6.75,6.75,0,0,0,117.82,137.57Zm0,11.35a4.61,4.61,0,1,1,4.61-4.6A4.6,4.6,0,0,1,117.82,148.92Z"/><line class="cls-8" x1="161.79" y1="15.38" x2="151.88" y2="15.39"/><polyline class="cls-8" points="180.27 43.31 180.25 15.36 165.38 15.38"/><line class="cls-8" x1="102.49" y1="226.02" x2="112.4" y2="226.01"/><polyline class="cls-8" points="84.01 198.08 84.03 226.03 98.9 226.02"/><circle class="cls-8" cx="66.99" cy="174.65" r="5.09"/><line class="cls-8" x1="179.15" y1="83.8" x2="191.04" y2="71.91"/><line class="cls-8" x1="191.31" y1="83.8" x2="179.25" y2="71.75"/></svg>