<svg id="Layer_1" data-name="Layer 1" xmlns="http://www.w3.org/2000/svg" viewBox="0 0 30 30"><defs><style>.cls-1{fill:#fff;}</style></defs><title>Comment</title><path class="cls-1" d="M9,29.55V22.72c-.87,0-1.7,0-2.52,0A5.9,5.9,0,0,1,.72,18.49a6.87,6.87,0,0,1-.26-1.87c0-3.06,0-6.13,0-9.2a5.89,5.89,0,0,1,6-6.11q8.49,0,17,0a5.89,5.89,0,0,1,6.1,6.17c0,3,0,6,0,9a5.93,5.93,0,0,1-6.26,6.25c-1.85,0-3.7,0-5.55,0a2.5,2.5,0,0,0-1.89.74C13.63,25.46,11.39,27.43,9,29.55ZM7.77,9.87a2.13,2.13,0,1,0,0,4.25,2.13,2.13,0,0,0,0-4.25Zm7.3,4.25A2.14,2.14,0,0,0,17.2,12a2.17,2.17,0,0,0-2.12-2.14A2.14,2.14,0,0,0,13,12,2.11,2.11,0,0,0,15.07,14.12ZM20.26,12a2.11,2.11,0,0,0,2.07,2.16A2.13,2.13,0,1,0,20.26,12Z"/></svg>