<svg id="Layer_1" data-name="Layer 1" xmlns="http://www.w3.org/2000/svg" viewBox="0 0 250 250"><defs><style>.cls-1{fill:#7097c1;}.cls-2{fill:#588fb7;}.cls-3{fill:#bcbec0;}.cls-4{fill:#808285;}.cls-5{fill:#fff;}.cls-6{fill:#3ba4f2;}.cls-7{fill:#f1f2f2;}.cls-8{fill:#e6e7e8;}</style></defs><title>Online tst icons</title><rect class="cls-1" width="250" height="250"/><ellipse class="cls-2" cx="122.18" cy="177.32" rx="101.66" ry="22.65"/><circle class="cls-3" cx="124.94" cy="135.55" r="15.78"/><path class="cls-3" d="M152.89,183.1H96.07a28.41,28.41,0,1,1,56.82,0Z"/><circle class="cls-3" cx="169.52" cy="138.07" r="13.28"/><path class="cls-3" d="M193,178.07H145.22a23.91,23.91,0,0,1,47.81,0Z"/><circle class="cls-3" cx="80.83" cy="138.07" r="13.28"/><path class="cls-3" d="M104.35,178.07H56.55a23.9,23.9,0,0,1,47.8,0Z"/><path class="cls-4" d="M169.14,100.06v16.66l-21-16.66H134.94l-10.39,16.66-10.19-16.66h-13L80.74,116.72V100.06a19.81,19.81,0,0,1-19.8-19.8h0c0-10.94,8.87-19.8,24.29-19.8h88.4c6.44,0,15.31,8.86,15.31,19.8h0A19.81,19.81,0,0,1,169.14,100.06Z"/><path class="cls-5" d="M166.34,97v14.23L148.42,97H133.3l-8.88,14.23L115.72,97H100.2L82.62,111.25V97A16.92,16.92,0,0,1,65.71,80.11h0A16.91,16.91,0,0,1,82.62,63.2h83.72a16.92,16.92,0,0,1,16.91,16.91h0A16.92,16.92,0,0,1,166.34,97Z"/><rect class="cls-6" x="80.45" y="76.92" width="86.73" height="6.36" rx="3.18"/><circle class="cls-5" cx="124.94" cy="132.3" r="15.78"/><circle class="cls-5" cx="169.52" cy="134.82" r="13.28"/><path class="cls-7" d="M193,174.82H145.22a23.91,23.91,0,0,1,47.81,0Z"/><circle class="cls-5" cx="80.83" cy="134.82" r="13.28"/><path class="cls-7" d="M104.35,174.82H56.55a23.9,23.9,0,0,1,47.8,0Z"/><path class="cls-8" d="M152.89,179.85H96.07a28.41,28.41,0,1,1,56.82,0Z"/></svg>