<svg id="Layer_1" data-name="Layer 1" xmlns="http://www.w3.org/2000/svg" viewBox="0 0 250 250"><defs><style>.cls-1{fill:#4c9aff;}.cls-2,.cls-7{fill:#0562e8;}.cls-2{opacity:0.2;}.cls-3{fill:#bcbec0;}.cls-4{fill:#f1f2f2;}.cls-5{fill:#a7a9ac;}.cls-6{fill:#fff;}.cls-8{fill:#d1d3d4;}</style></defs><title>Online tst icons</title><rect class="cls-1" x="0.35" y="0.1" width="249.65" height="249.9"/><ellipse class="cls-2" cx="122.41" cy="194.5" rx="101.66" ry="22.65"/><polygon class="cls-3" points="195.21 187.63 54.64 187.63 51.35 183.92 51.35 65.58 191.52 65.58 195.21 69.24 195.21 187.63"/><rect class="cls-4" x="51.36" y="65.58" width="140.17" height="118.34"/><polygon class="cls-5" points="162.49 174.31 192.97 200.5 176.89 216.58 150.7 186.1 138.72 206.87 122.41 146.02 183.27 162.32 162.49 174.31"/><polygon class="cls-6" points="163.58 171.49 194.06 197.68 177.98 213.76 151.79 183.28 139.8 204.05 123.49 143.2 184.35 159.5 163.58 171.49"/><rect class="cls-7" x="51.36" y="65.58" width="140.17" height="29.42"/><rect class="cls-8" x="61.58" y="109.54" width="50.33" height="50.33" rx="3.78"/><rect class="cls-8" x="115.38" y="109.54" width="67.47" height="12.37"/><rect class="cls-8" x="115.38" y="128.52" width="67.47" height="12.37"/><circle class="cls-4" cx="86.74" cy="134.7" r="20.95"/><circle class="cls-6" cx="175.15" cy="80.29" r="5.86"/><circle class="cls-6" cx="154.97" cy="80.29" r="5.86"/><circle class="cls-6" cx="134.79" cy="80.29" r="5.86"/><polygon class="cls-7" points="113.6 116.91 117.59 120.9 89.91 148.58 74.21 132.88 78.2 128.89 89.91 140.6 113.6 116.91"/></svg>