<svg id="Layer_1" data-name="Layer 1" xmlns="http://www.w3.org/2000/svg" viewBox="0 0 250 250"><defs><style>.cls-1{fill:#ff8680;}.cls-2,.cls-5,.cls-7,.cls-8{fill:#f13624;}.cls-2{opacity:0.25;}.cls-3{fill:#d1d3d4;}.cls-4{fill:#f1f2f2;}.cls-6{fill:#fff;}.cls-7{opacity:0.5;}.cls-8{opacity:0.75;}.cls-9{fill:#cc2921;}.cls-10{fill:#ea8383;}.cls-11{fill:#f2948f;}</style></defs><title>Online tst icons</title><rect class="cls-1" width="250" height="250"/><ellipse class="cls-2" cx="123.92" cy="177.32" rx="101.66" ry="22.65"/><polygon class="cls-3" points="199.57 176.86 54.18 176.86 51.74 174.19 51.74 79.24 197.13 79.24 199.57 81.91 199.57 176.86"/><rect class="cls-4" x="51.74" y="79.24" width="145.39" height="94.95"/><rect class="cls-5" x="51.74" y="79.24" width="145.39" height="14.37"/><circle class="cls-6" cx="60.43" cy="86.42" r="3.86"/><circle class="cls-6" cx="71.35" cy="86.42" r="3.86"/><circle class="cls-6" cx="82.28" cy="86.42" r="3.86"/><rect class="cls-6" x="60.43" y="101.75" width="61.7" height="61.7"/><rect class="cls-7" x="105.16" y="108.52" width="10.8" height="48.85"/><rect class="cls-7" x="85.88" y="137.51" width="10.8" height="19.86"/><rect class="cls-7" x="65.95" y="124.46" width="10.8" height="32.91"/><path class="cls-6" d="M162.67,91.13,186.12,112a31.37,31.37,0,1,0-53.32-11.26Z"/><path class="cls-6" d="M162.67,91.13l-30,9.27c.18.57.37,1.14.58,1.7a31.43,31.43,0,0,0,30.42,20.38Z"/><path class="cls-6" d="M164.77,96.75l2.09,31.3a31.36,31.36,0,0,0,21.53-10.67Z"/><path class="cls-8" d="M160.87,86.32l-30,9.26c.17.57.37,1.14.58,1.7a31.4,31.4,0,0,0,30.41,20.38Z"/><path class="cls-9" d="M160.87,86.32l23.45,20.83A31.36,31.36,0,1,0,131,95.89Z"/><path class="cls-10" d="M163,91.94l2.09,31.29a31,31,0,0,0,8.87-1.91,31.45,31.45,0,0,0,12.67-8.75Z"/><rect class="cls-6" x="132.7" y="136.03" width="57.29" height="27.42"/><rect class="cls-5" x="136.52" y="140.91" width="36.38" height="5.27"/><rect class="cls-11" x="136.52" y="147.98" width="22.62" height="5.27"/><rect class="cls-8" x="136.52" y="155.05" width="51.87" height="5.27"/></svg>