<svg id="Layer_1" data-name="Layer 1" xmlns="http://www.w3.org/2000/svg" viewBox="0 0 250 250"><defs><style>.cls-1{fill:#72d6a9;}.cls-2,.cls-5{fill:#3dba85;}.cls-2{opacity:0.2;}.cls-3{fill:#bcbec0;}.cls-4{fill:#f1f2f2;}.cls-6{fill:#d1d3d4;}.cls-7{fill:#359366;}.cls-8{fill:#e6e7e8;}</style></defs><title>Online tst icons</title><rect class="cls-1" x="0.1" y="0.1" width="249.9" height="249.9"/><ellipse class="cls-2" cx="125" cy="194.5" rx="101.66" ry="22.65"/><polygon class="cls-3" points="185.45 205.59 67.64 205.59 63.77 201.42 63.77 53.82 146.85 53.82 181.59 88.56 185.45 95.26 185.45 205.59"/><polygon class="cls-4" points="181.59 88.56 181.59 201.42 63.78 201.42 63.78 53.82 146.85 53.82 181.59 88.56"/><polygon class="cls-5" points="167.43 80.19 66.99 80.19 66.99 57.99 145.24 57.99 167.43 80.19"/><rect class="cls-6" x="70.44" y="87.59" width="41.11" height="41.11" rx="3.09"/><circle class="cls-4" cx="91" cy="108.14" r="17.11"/><polygon class="cls-7" points="112.93 93.61 116.19 96.87 93.58 119.48 80.76 106.66 84.02 103.39 93.58 112.96 112.93 93.61"/><rect class="cls-6" x="70.44" y="138.41" width="41.11" height="41.11" rx="3.09"/><circle class="cls-4" cx="91" cy="158.97" r="17.11"/><polygon class="cls-7" points="112.93 144.44 116.19 147.7 93.58 170.31 80.76 157.48 84.02 154.22 93.58 163.79 112.93 144.44"/><polygon class="cls-7" points="146.85 53.82 146.85 88.56 181.59 88.56 146.85 53.82"/><rect class="cls-6" x="117.21" y="93.61" width="29.64" height="8.79"/><rect class="cls-6" x="117.21" y="105.68" width="22.37" height="8.79"/><rect class="cls-3" x="117.21" y="117.75" width="44.74" height="8.79"/><rect class="cls-6" x="117.21" y="165.05" width="53.92" height="8.79"/><rect class="cls-3" x="117.21" y="152.98" width="31.87" height="8.79"/><rect class="cls-6" x="117.21" y="140.91" width="24.79" height="8.79"/><rect class="cls-3" x="143.2" y="129.19" width="90.37" height="7.03" transform="translate(16.47 286.15) rotate(-76.91)"/><path class="cls-7" d="M209.31,74.49l-3.68,15.84L195.19,87.9l3.69-15.84a5.35,5.35,0,0,1,6.43-4,5.13,5.13,0,0,1,1.56.64,5.33,5.33,0,0,1,2.44,5.79Z"/><rect class="cls-6" x="148.42" y="132.08" width="90.37" height="3.69" transform="translate(19.32 292.17) rotate(-76.91)"/><polygon class="cls-8" points="185.17 178.35 182.29 183.3 176 194.12 175.13 181.63 174.73 175.92 185.17 178.35"/><polygon class="cls-7" points="180.08 187.11 175.49 186.04 176 194.12 180.08 187.11"/></svg>