<svg id="Layer_1" data-name="Layer 1" xmlns="http://www.w3.org/2000/svg" viewBox="0 0 250 250"><defs><style>.cls-1{fill:#efad65;}.cls-2,.cls-5{fill:#f99316;}.cls-2{opacity:0.5;}.cls-3{fill:#bcbec0;}.cls-4{fill:#f1f2f2;}.cls-6{fill:#d1d3d4;}.cls-7{fill:#fff;}</style></defs><title>Online tst icons</title><rect class="cls-1" width="250" height="250"/><ellipse class="cls-2" cx="123.92" cy="196.81" rx="101.66" ry="22.65"/><polygon class="cls-3" points="199.57 200.56 57.74 200.56 54.43 196.81 54.43 51.85 195.85 51.85 199.57 55.54 199.57 200.56"/><rect class="cls-4" x="54.43" y="51.85" width="141.42" height="144.96"/><rect class="cls-5" x="54.43" y="51.85" width="141.42" height="29.69"/><rect class="cls-6" x="59.99" y="162.54" width="26.1" height="26.1" rx="1.96"/><circle class="cls-4" cx="73.04" cy="175.59" r="10.86"/><circle class="cls-7" cx="179.32" cy="66.69" r="5.91"/><circle class="cls-7" cx="158.97" cy="66.69" r="5.91"/><circle class="cls-7" cx="138.61" cy="66.69" r="5.91"/><polygon class="cls-5" points="86.97 166.36 89.04 168.43 74.69 182.78 66.55 174.64 68.61 172.57 74.69 178.64 86.97 166.36"/><rect class="cls-6" x="128.84" y="162.54" width="26.1" height="26.1" rx="1.96"/><circle class="cls-4" cx="141.89" cy="175.59" r="10.86"/><polygon class="cls-5" points="155.81 166.36 157.88 168.43 143.53 182.78 135.39 174.64 137.46 172.57 143.53 178.64 155.81 166.36"/><rect class="cls-3" x="103.8" y="93.74" width="20.64" height="20.64"/><rect class="cls-3" x="115.84" y="127.1" width="20.64" height="20.64"/><rect class="cls-3" x="144.72" y="127.1" width="20.64" height="20.64"/><rect class="cls-3" x="85.73" y="127.1" width="20.64" height="20.64"/><rect class="cls-5" x="112.74" y="114.37" width="2.67" height="4.39"/><rect class="cls-3" x="95.12" y="118.33" width="62.77" height="2.84"/><rect class="cls-5" x="112.74" y="118.33" width="45.14" height="2.84"/><rect class="cls-5" x="155.39" y="121.17" width="2.49" height="5.93"/><rect class="cls-3" x="95.12" y="121.17" width="2.49" height="5.93"/><rect class="cls-3" x="123.92" y="121.17" width="2.58" height="5.93"/><rect class="cls-3" x="92.57" y="168.05" width="18.52" height="4.93"/><rect class="cls-3" x="92.57" y="175.59" width="31.87" height="4.93"/><rect class="cls-3" x="160.65" y="168.05" width="18.52" height="4.93"/><rect class="cls-3" x="160.65" y="175.59" width="31.87" height="4.93"/></svg>