<svg id="Layer_1" data-name="Layer 1" xmlns="http://www.w3.org/2000/svg" viewBox="0 0 250 250"><defs><style>.cls-1{fill:#f1c40f;}.cls-2{fill:#cca811;}.cls-3{opacity:0.15;}.cls-4{fill:#231f20;}.cls-5{fill:#f1f2f2;}.cls-6{opacity:0.25;}</style></defs><title>Online tst icons</title><rect class="cls-1" width="250" height="250"/><ellipse class="cls-2" cx="126.5" cy="202.74" rx="101.66" ry="22.65"/><g class="cls-3"><path class="cls-4" d="M123.51,203.07H92.66s-9,0-9-5.7c0-14.72,4.53-29.44,4.61-44.16a8.36,8.36,0,0,0-2.44-6.16c-16.19-17.8-21-38.45-12.84-61S98,50.1,121.94,47A59.47,59.47,0,0,1,188.61,97.5a58.52,58.52,0,0,1,.7,12.19,15.48,15.48,0,0,0,2.16,8.72c3.35,6.08,6.51,12.26,9.73,18.41a23.82,23.82,0,0,1,1.63,3.52c1.76,5.31-.35,8.78-5.85,9.62a28.44,28.44,0,0,1-4.7.26c-2.15,0-3,1-2.95,3.06q.06,8.61,0,17.22c-.07,9-5.2,14.15-14.15,14.22-3.7,0-7.4,0-11.11,0-4.71,0-4.71,0-4.72,4.86,0,3.15,0,6.3,0,9.44,0,3.85-.2,4-4.16,4Q139.35,203.09,123.51,203.07Z"/></g><path class="cls-5" d="M118.82,198.8H89.38c-5.83,0-5.84,0-5.84-5.7,0-14.72,0-29.44,0-44.16a8.36,8.36,0,0,0-2.44-6.16C65,125,60.16,104.33,68.3,81.76s25-35.93,49-39.06a59.46,59.46,0,0,1,66.67,50.53,57.84,57.84,0,0,1,.69,12.19,15.57,15.57,0,0,0,2.17,8.72c3.35,6.08,6.51,12.26,9.73,18.41a24.89,24.89,0,0,1,1.63,3.52c1.76,5.3-.35,8.78-5.85,9.62a28.5,28.5,0,0,1-4.71.26c-2.14,0-3,1-2.94,3.06q.06,8.61,0,17.22c-.07,9-5.21,14.15-14.15,14.22-3.7,0-7.41,0-11.11,0-4.71,0-4.71,0-4.72,4.86,0,3.15,0,6.29,0,9.44,0,3.85-.2,4-4.16,4Q134.66,198.82,118.82,198.8Z"/><g class="cls-6"><path class="cls-1" d="M172.48,89.08c0-.46-.17-.59-.56-.73-1.87-.63-3.72-1.32-5.58-2a.85.85,0,0,1-.64-.66,21.08,21.08,0,0,0-2.13-5.12.92.92,0,0,1,0-1c.87-1.77,1.7-3.57,2.56-5.34a.69.69,0,0,0-.16-1q-2.13-2.07-4.2-4.2a.7.7,0,0,0-1-.16c-1.78.86-3.57,1.69-5.34,2.56a.88.88,0,0,1-1,0,21.59,21.59,0,0,0-5-2.08,1,1,0,0,1-.82-.75c-.63-1.85-1.32-3.67-1.94-5.52-.14-.4-.29-.55-.74-.55q-3,0-6.08,0c-.42,0-.56.14-.69.52-.64,1.86-1.33,3.71-2,5.58a1,1,0,0,1-.77.71,21.09,21.09,0,0,0-5.05,2.11.85.85,0,0,1-.91,0c-1.75-.86-3.52-1.68-5.28-2.52l-.62-.28c-.13.11-.28.23-.41.36-1.4,1.4-2.79,2.81-4.21,4.19a.74.74,0,0,0-.18,1c.87,1.75,1.68,3.52,2.54,5.27a1,1,0,0,1,0,1,21.16,21.16,0,0,0-2.11,5.06.92.92,0,0,1-.67.71c-1.87.65-3.72,1.34-5.59,2a.64.64,0,0,0-.52.75c0,2,0,4,0,6a.64.64,0,0,0,.53.75c1.87.63,3.72,1.32,5.58,2a.93.93,0,0,1,.68.71,20.73,20.73,0,0,0,2.1,5.06.94.94,0,0,1,0,1c-.87,1.77-1.7,3.56-2.56,5.34a.66.66,0,0,0,.16.91c1.42,1.38,2.83,2.78,4.2,4.2a.73.73,0,0,0,1,.16c1.78-.87,3.57-1.69,5.34-2.56a.84.84,0,0,1,.9,0,21.34,21.34,0,0,0,5.06,2.11,1,1,0,0,1,.77.71c.64,1.86,1.33,3.71,2,5.58a.61.61,0,0,0,.68.52c2.06,0,4.11,0,6.16,0a.57.57,0,0,0,.64-.48c.65-1.89,1.34-3.76,2-5.65a.9.9,0,0,1,.72-.67,21.44,21.44,0,0,0,5.12-2.14.79.79,0,0,1,.84,0c1.77.87,3.56,1.69,5.34,2.56a.76.76,0,0,0,1.08-.16c1.36-1.41,2.75-2.79,4.15-4.15a.7.7,0,0,0,.18-1c-.87-1.77-1.69-3.57-2.57-5.34a1,1,0,0,1,0-1,21,21,0,0,0,2.08-5,1,1,0,0,1,.71-.76c1.87-.65,3.72-1.33,5.59-2a.61.61,0,0,0,.5-.7Q172.44,92.13,172.48,89.08Zm-29.61,14.81A11.78,11.78,0,1,1,154.73,92.2,11.75,11.75,0,0,1,142.87,103.89Z"/></g><g class="cls-6"><path class="cls-1" d="M118.58,118.41c0-.32-.12-.42-.39-.51-1.31-.44-2.6-.92-3.9-1.38a.6.6,0,0,1-.45-.46,15.11,15.11,0,0,0-1.48-3.58.6.6,0,0,1,0-.67c.61-1.24,1.19-2.49,1.79-3.73a.49.49,0,0,0-.11-.68c-1-1-2-1.94-2.93-2.94a.5.5,0,0,0-.68-.11c-1.24.61-2.49,1.18-3.73,1.79a.62.62,0,0,1-.68,0,14.25,14.25,0,0,0-3.49-1.46.75.75,0,0,1-.57-.53c-.44-1.28-.92-2.56-1.35-3.85-.1-.28-.21-.39-.52-.38-1.41,0-2.83,0-4.25,0-.29,0-.39.1-.48.36-.45,1.3-.93,2.59-1.38,3.89a.65.65,0,0,1-.53.5,14.59,14.59,0,0,0-3.53,1.48.59.59,0,0,1-.64,0c-1.22-.6-2.45-1.17-3.68-1.75l-.43-.2a3.47,3.47,0,0,0-.29.25c-1,1-2,2-3,2.93a.51.51,0,0,0-.12.72c.61,1.22,1.17,2.46,1.77,3.68a.67.67,0,0,1,0,.72A14.63,14.63,0,0,0,82.08,116a.65.65,0,0,1-.47.49c-1.31.45-2.6.93-3.9,1.37a.46.46,0,0,0-.37.53q0,2.1,0,4.2a.45.45,0,0,0,.37.52c1.31.44,2.6.92,3.9,1.38a.65.65,0,0,1,.47.49,14.63,14.63,0,0,0,1.47,3.54.65.65,0,0,1,0,.72c-.61,1.23-1.19,2.49-1.79,3.72a.47.47,0,0,0,.11.64c1,1,2,1.94,2.93,2.94a.53.53,0,0,0,.73.11c1.23-.61,2.49-1.18,3.73-1.79a.6.6,0,0,1,.63,0,14.56,14.56,0,0,0,3.53,1.47.69.69,0,0,1,.53.5c.45,1.3.93,2.59,1.38,3.9.09.26.19.36.48.36,1.43,0,2.87,0,4.3,0a.41.41,0,0,0,.45-.34c.45-1.31.93-2.62,1.39-3.94a.65.65,0,0,1,.5-.47,15,15,0,0,0,3.58-1.49.55.55,0,0,1,.59,0l3.73,1.78a.53.53,0,0,0,.76-.11c.94-1,1.91-1.95,2.89-2.9a.49.49,0,0,0,.13-.68c-.61-1.23-1.18-2.49-1.8-3.72a.67.67,0,0,1,0-.72,15.23,15.23,0,0,0,1.45-3.49.68.68,0,0,1,.5-.53c1.3-.45,2.59-.93,3.9-1.38a.43.43,0,0,0,.35-.48C118.56,121.24,118.56,119.82,118.58,118.41ZM97.9,128.75a8.22,8.22,0,1,1,8.28-8.16A8.19,8.19,0,0,1,97.9,128.75Z"/></g><path class="cls-1" d="M172.48,85.1c0-.46-.17-.59-.56-.72-1.87-.64-3.72-1.32-5.58-2a.85.85,0,0,1-.64-.66,21.24,21.24,0,0,0-2.13-5.12.92.92,0,0,1,0-1c.87-1.77,1.7-3.56,2.56-5.34a.7.7,0,0,0-.16-1q-2.13-2.07-4.2-4.2a.7.7,0,0,0-1-.16c-1.78.87-3.57,1.69-5.34,2.56a.9.9,0,0,1-1,0,21.19,21.19,0,0,0-5-2.09,1,1,0,0,1-.82-.75c-.63-1.84-1.32-3.67-1.94-5.51-.14-.41-.29-.56-.74-.55q-3,0-6.08,0c-.42,0-.56.14-.69.51-.64,1.86-1.33,3.72-2,5.58a1,1,0,0,1-.77.71,21.09,21.09,0,0,0-5.05,2.11.85.85,0,0,1-.91,0c-1.75-.86-3.52-1.68-5.28-2.52l-.62-.28c-.13.12-.28.23-.41.36-1.4,1.4-2.79,2.82-4.21,4.19a.74.74,0,0,0-.18,1c.87,1.75,1.68,3.52,2.54,5.27a1,1,0,0,1,0,1,21,21,0,0,0-2.11,5.06.91.91,0,0,1-.67.7c-1.87.65-3.72,1.34-5.59,2a.64.64,0,0,0-.52.75c0,2,0,4,0,6a.64.64,0,0,0,.53.75c1.87.62,3.72,1.31,5.58,2a1,1,0,0,1,.68.71,20.57,20.57,0,0,0,2.1,5.06.94.94,0,0,1,0,1c-.87,1.77-1.7,3.57-2.56,5.34a.66.66,0,0,0,.16.91c1.42,1.39,2.83,2.78,4.2,4.21a.73.73,0,0,0,1,.15c1.78-.87,3.57-1.69,5.34-2.56a.84.84,0,0,1,.9,0,21.34,21.34,0,0,0,5.06,2.11,1,1,0,0,1,.77.71c.64,1.86,1.33,3.72,2,5.58a.61.61,0,0,0,.68.52c2.06,0,4.11,0,6.16,0a.57.57,0,0,0,.64-.48c.65-1.89,1.34-3.76,2-5.65a.89.89,0,0,1,.72-.66,22.29,22.29,0,0,0,5.12-2.14.78.78,0,0,1,.84,0c1.77.87,3.56,1.69,5.34,2.56a.76.76,0,0,0,1.08-.16c1.36-1.41,2.75-2.79,4.15-4.15a.7.7,0,0,0,.18-1c-.87-1.77-1.69-3.57-2.57-5.33a1,1,0,0,1,0-1,21,21,0,0,0,2.08-5,1,1,0,0,1,.71-.76c1.87-.64,3.72-1.33,5.59-2a.61.61,0,0,0,.5-.69Q172.44,88.15,172.48,85.1ZM142.87,99.91a11.77,11.77,0,1,1,11.86-11.69A11.74,11.74,0,0,1,142.87,99.91Z"/><path class="cls-1" d="M118.58,116.7c0-.32-.12-.41-.39-.5-1.31-.45-2.6-.93-3.9-1.38a.62.62,0,0,1-.45-.46,14.78,14.78,0,0,0-1.48-3.58.62.62,0,0,1,0-.68c.61-1.24,1.19-2.49,1.79-3.73a.5.5,0,0,0-.11-.68c-1-1-2-1.94-2.93-2.93a.5.5,0,0,0-.68-.11c-1.24.6-2.49,1.18-3.73,1.79a.64.64,0,0,1-.68,0,15.08,15.08,0,0,0-3.49-1.46.74.74,0,0,1-.57-.52c-.44-1.29-.92-2.56-1.35-3.85-.1-.29-.21-.39-.52-.39-1.41,0-2.83,0-4.25,0-.29,0-.39.1-.48.36-.45,1.3-.93,2.6-1.38,3.9a.68.68,0,0,1-.53.5,14.56,14.56,0,0,0-3.53,1.47.59.59,0,0,1-.64,0c-1.22-.6-2.45-1.17-3.68-1.76l-.43-.2-.29.26c-1,1-2,2-3,2.92a.52.52,0,0,0-.12.72c.61,1.22,1.17,2.46,1.77,3.68a.69.69,0,0,1,0,.73,14.56,14.56,0,0,0-1.47,3.53.62.62,0,0,1-.47.49c-1.31.46-2.6.94-3.9,1.38a.45.45,0,0,0-.37.52q0,2.1,0,4.2a.45.45,0,0,0,.37.53c1.31.44,2.6.92,3.9,1.37a.65.65,0,0,1,.47.5,14.56,14.56,0,0,0,1.47,3.53.65.65,0,0,1,0,.72c-.61,1.24-1.19,2.49-1.79,3.73a.47.47,0,0,0,.11.64c1,1,2,1.94,2.93,2.93a.52.52,0,0,0,.73.11c1.23-.6,2.49-1.18,3.73-1.78a.58.58,0,0,1,.63,0,14.59,14.59,0,0,0,3.53,1.48.67.67,0,0,1,.53.49c.45,1.31.93,2.6,1.38,3.9.09.26.19.37.48.36h4.3a.4.4,0,0,0,.45-.33c.45-1.32.93-2.63,1.39-4a.65.65,0,0,1,.5-.46,15,15,0,0,0,3.58-1.5.57.57,0,0,1,.59,0c1.24.61,2.49,1.18,3.73,1.79a.55.55,0,0,0,.76-.11c.94-1,1.91-2,2.89-2.9a.5.5,0,0,0,.13-.68c-.61-1.24-1.18-2.49-1.8-3.73a.67.67,0,0,1,0-.72,15.15,15.15,0,0,0,1.45-3.48.68.68,0,0,1,.5-.54c1.3-.45,2.59-.92,3.9-1.37a.43.43,0,0,0,.35-.49C118.56,119.54,118.56,118.12,118.58,116.7ZM97.9,127.05a8.23,8.23,0,1,1,8.28-8.17A8.2,8.2,0,0,1,97.9,127.05Z"/></svg>