<svg id="Layer_1" data-name="Layer 1" xmlns="http://www.w3.org/2000/svg" viewBox="0 0 100 100"><title>Dust bin</title><path d="M82.59,25.08c-.11-2.15-.88-3-3.09-3Q62,22,44.54,21.92c-7.67,0-15.34.09-23,.17-2.55,0-3.54,1.07-3.42,3.65q.95,19.4,1.95,38.77.61,12.31,1.21,24.63a1.09,1.09,0,0,1,0,.18c.12,4.68.68,6,5.16,6.44,11.9,1.28,36,1.61,47.86,0,.3,0,.58-.19.88-.22,2.69-.23,4.13-1.66,4.25-4.31.65-13.29,1.26-26.58,1.9-39.87.39-8.27.83-16.54,1.24-24.81A14.42,14.42,0,0,0,82.59,25.08ZM38.49,83.89c0,2.19-1.2,3.5-3.13,3.54S32.13,86.29,32,84.1c-.23-5.57-.44-11.15-.58-16.73l-.36-8.82c-.2-8.34-.43-16.68-.59-25a3.12,3.12,0,0,1,4.82-2.87,3.25,3.25,0,0,1,1.39,2.13q.49,5.85.67,11.74Q38,62.93,38.47,81.32C38.49,82.17,38.51,83,38.49,83.89Zm15.16-2.07a22.82,22.82,0,0,1-.13,2.75c-.28,2.08-1.11,2.77-3.16,2.76s-2.82-.67-3-2.84c-.18-1.83-.24-3.67-.24-5.51q0-21,0-42c0-1.34.07-2.7.18-4a2.91,2.91,0,0,1,3.16-2.84,3.09,3.09,0,0,1,3.16,3.1q0,12.62,0,25.22Q53.66,70.13,53.65,81.82ZM69.77,56.66c-.38,10.37-.69,18.77-1,27.16-.09,2.25-1.2,3.45-3.16,3.52S62.37,86.21,62.39,84q0-7.17.25-14.34.48-16.36,1-32.73c0-1.28,0-2.58.2-3.85a3,3,0,0,1,3.42-2.83,2.92,2.92,0,0,1,3,3.23C70.12,41.84,69.91,50.24,69.77,56.66Z"/><path d="M87.19,17c-.49,1.83-2.32,2.11-4.22,2.11q-32.53-.1-65.08,0c-2.12,0-3.92-.44-4.34-2.49a3.17,3.17,0,0,1,0-1.47c.53-2,2.51-2.37,4.56-2.3,4,.13,8,0,11.93,0h6c0-4.45,1.82-7.57,5.92-9.14A10.44,10.44,0,0,1,43.74,3,38.21,38.21,0,0,1,56.63,3a11,11,0,0,1,2.07.65c4.19,1.53,6,4.68,6.12,9.21h2.05c5.45,0,10.9.09,16.34,0,1.88,0,3.56.48,4,2.27A4,4,0,0,1,87.19,17ZM58.24,12.72c.19-1.94-.29-3-2-3.09-3.89-.2-7.79-.19-11.68,0-1.62.07-2.35,1.32-2,3.11Z"/></svg>