<svg id="Layer_1" data-name="Layer 1" xmlns="http://www.w3.org/2000/svg" viewBox="0 0 250 250"><defs><style>.cls-1,.cls-3{opacity:0.06;}.cls-2,.cls-3{fill:#0562e8;}.cls-4{fill:#b3d4ff;}.cls-5,.cls-8{fill:none;stroke:#4c9aff;stroke-miterlimit:10;}.cls-6{fill:#fff;}.cls-7{fill:#d2e4f9;}.cls-8{stroke-linecap:round;}</style></defs><title>Recent_Your-Test_Upcoming</title><g class="cls-1"><path class="cls-2" d="M115.93,57.17c24.29,9.91,101.25-39,95.23,27.79-.94,9.92-5.95,23.94-1.72,33.21,3.06,6.94,8.67,11,14.1,13.7C237.7,139.23,243,153,239.39,172.73c-9.6,53.1-61.82,40.5-89.24,24.76-19.5-11.71-42.49-13.72-62.68-3.81-15.82,8.06-25.68,25-44.24,20-16.46-4.22-18.95-24.07-14.14-42.56,2.73-11.43,4.69-16.27-.73-27.3-4.56-11-12.6-19.27-13.21-32.12C15,97.82,20,83.8,29.7,78.53c7.92-4.31,15.1-2.57,22.94-5.22,17.43-6.26,28.64-40.86,50.26-29,5.4,3.25,8.43,10.75,14.3,12.93"/></g><circle class="cls-3" cx="179.2" cy="30.52" r="6.03"/><circle class="cls-3" cx="232.19" cy="114.45" r="7.98"/><circle class="cls-3" cx="218.56" cy="106.06" r="5.64"/><circle class="cls-3" cx="229.69" cy="98.78" r="2.5"/><circle class="cls-3" cx="192.31" cy="34.43" r="3.91"/><circle class="cls-3" cx="52.58" cy="41.01" r="6.03"/><circle class="cls-3" cx="17.86" cy="144.79" r="5"/><circle class="cls-3" cx="23.2" cy="159.88" r="5"/><circle class="cls-3" cx="102.08" cy="198.84" r="5"/><circle class="cls-3" cx="236.73" cy="205.95" r="6.11"/><circle class="cls-3" cx="227.99" cy="213.89" r="1.83"/><circle class="cls-3" cx="12.86" cy="155.51" r="2.51"/><circle class="cls-3" cx="89.6" cy="202.78" r="2.51"/><circle class="cls-3" cx="63.08" cy="48.84" r="3.91"/><circle class="cls-3" cx="52.58" cy="55.1" r="2.54"/><rect class="cls-4" x="76.26" y="59.56" width="107.27" height="130.45"/><rect class="cls-5" x="71.33" y="59.56" width="112.3" height="130.45"/><circle class="cls-6" cx="126.91" cy="154.65" r="19.36"/><path class="cls-7" d="M126.51,156.7,112,136.36a25,25,0,1,0,39.57,20.34Z"/><path class="cls-7" d="M128.07,152.6l17.32-18a25,25,0,0,0-28.75-4.2Z"/><path class="cls-7" d="M131,154.1l25-.94a25,25,0,0,0-5.24-14.41Z"/><rect class="cls-6" x="108.74" y="77.22" width="59.64" height="5.08"/><rect class="cls-6" x="108.74" y="85.05" width="29.82" height="5.08"/><rect class="cls-6" x="108.74" y="115.05" width="43.42" height="5.08"/><rect class="cls-6" x="108.74" y="107.21" width="37.38" height="5.08"/><path class="cls-5" d="M216.86,142.1H193.77a4.52,4.52,0,0,1-4.52-4.53V109.22a2.68,2.68,0,0,1,2.67-2.67h10.9a3,3,0,0,1,2.29,1l2.16,2.52a3,3,0,0,0,2.29,1h8.36a3.46,3.46,0,0,1,3.46,3.47v22.94A4.52,4.52,0,0,1,216.86,142.1Z"/><path class="cls-4" d="M223.6,142.59H193.84s3.9-.42,3.9-5.17V119a2.49,2.49,0,0,1,2.5-2.49H223.6a2.49,2.49,0,0,1,2.49,2.49v21A2.5,2.5,0,0,1,223.6,142.59Z"/><path class="cls-5" d="M46.5,202.29H31.61a2.91,2.91,0,0,1-2.92-2.92V181.08a1.73,1.73,0,0,1,1.72-1.73h7a2,2,0,0,1,1.47.68l1.4,1.62a2,2,0,0,0,1.47.68h5.4a2.23,2.23,0,0,1,2.23,2.24v14.8A2.92,2.92,0,0,1,46.5,202.29Z"/><path class="cls-4" d="M50.85,202.78H31.65a3,3,0,0,0,2.52-3.33V187.59A1.61,1.61,0,0,1,35.78,186H50.85a1.61,1.61,0,0,1,1.61,1.61v13.58A1.61,1.61,0,0,1,50.85,202.78Z"/><path class="cls-5" d="M58.51,58.78h-10a2,2,0,0,1-2-2V44.53a1.16,1.16,0,0,1,1.16-1.16h4.72a1.29,1.29,0,0,1,1,.46l.94,1.09a1.3,1.3,0,0,0,1,.45H59a1.5,1.5,0,0,1,1.5,1.5v9.94A2,2,0,0,1,58.51,58.78Z"/><path class="cls-4" d="M61.44,59.26H48.54A2,2,0,0,0,50.23,57v-8A1.08,1.08,0,0,1,51.31,48H61.44a1.08,1.08,0,0,1,1.08,1.08v9.12A1.08,1.08,0,0,1,61.44,59.26Z"/><line class="cls-8" x1="172.96" y1="51.83" x2="163.05" y2="51.83"/><polyline class="cls-8" points="191.44 79.76 191.41 51.81 176.55 51.82"/><line class="cls-8" x1="81.26" y1="197.36" x2="91.17" y2="197.35"/><polyline class="cls-8" points="62.78 169.43 62.81 197.38 77.68 197.36"/><circle class="cls-8" cx="53.51" cy="158.02" r="5.09"/><rect class="cls-7" x="82.53" y="73.23" width="17.95" height="20.89" rx="1.3" transform="translate(183.01 167.35) rotate(180)"/><rect class="cls-7" x="82.8" y="103.47" width="17.75" height="20.66" rx="1.28" transform="translate(183.35 227.61) rotate(180)"/><rect class="cls-5" x="82.36" y="73.03" width="21.3" height="21.3" rx="1.32" transform="translate(186.01 167.35) rotate(180)"/><rect class="cls-5" x="82.36" y="103.02" width="21.3" height="21.3" rx="1.32" transform="translate(186.01 227.35) rotate(180)"/></svg>