<svg id="Layer_1" data-name="Layer 1" xmlns="http://www.w3.org/2000/svg" viewBox="0 0 250 250"><defs><style>.cls-1,.cls-3{opacity:0.06;}.cls-2,.cls-3{fill:#0562e8;}.cls-4{fill:#b3d4ff;}.cls-5,.cls-8{fill:none;stroke:#4c9aff;stroke-miterlimit:10;}.cls-6{fill:#d2e4f9;}.cls-7{fill:#fff;}.cls-8{stroke-linecap:round;}</style></defs><title>Recent_Your-Test_Upcoming</title><g class="cls-1"><path class="cls-2" d="M137.05,57.17c-24.3,9.91-101.26-39-95.23,27.79.94,9.92,5.94,23.94,1.71,33.21-3.06,6.94-8.67,11-14.09,13.7C15.28,139.23,10,153,13.59,172.73c9.59,53.1,61.82,40.5,89.23,24.76,19.5-11.71,42.49-13.72,62.68-3.81,15.82,8.06,25.68,25,44.24,20,16.47-4.22,18.95-24.07,14.14-42.56-2.73-11.43-4.69-16.27.73-27.3,4.56-11,12.6-19.27,13.22-32.12C238,97.82,233,83.8,223.28,78.53c-7.93-4.31-15.11-2.57-22.95-5.22-17.43-6.26-28.63-40.86-50.26-29-5.39,3.25-8.42,10.75-14.3,12.93"/></g><circle class="cls-3" cx="75.09" cy="30.52" r="6.03"/><circle class="cls-3" cx="22.1" cy="114.45" r="7.98"/><circle class="cls-3" cx="35.73" cy="106.06" r="5.64"/><circle class="cls-3" cx="24.6" cy="98.78" r="2.5"/><circle class="cls-3" cx="61.98" cy="34.43" r="3.91"/><circle class="cls-3" cx="201.71" cy="41.01" r="6.03"/><circle class="cls-3" cx="236.43" cy="144.79" r="5"/><circle class="cls-3" cx="231.09" cy="159.88" r="5"/><circle class="cls-3" cx="159.15" cy="202.05" r="5"/><circle class="cls-3" cx="17.57" cy="205.95" r="6.11"/><circle class="cls-3" cx="26.3" cy="213.89" r="1.83"/><circle class="cls-3" cx="241.43" cy="155.51" r="2.51"/><circle class="cls-3" cx="171.63" cy="206" r="2.51"/><circle class="cls-3" cx="191.21" cy="48.84" r="3.91"/><circle class="cls-3" cx="201.71" cy="55.1" r="2.54"/><rect class="cls-4" x="112.63" y="73.99" width="118.08" height="90.15" transform="translate(9.51 250.78) rotate(-73.83)"/><rect class="cls-5" x="110.08" y="70.6" width="118.08" height="95.46" transform="translate(8.38 247.8) rotate(-73.83)"/><rect class="cls-6" x="177.31" y="40.71" width="7.59" height="75.99" transform="translate(55.07 230.73) rotate(-73.83)"/><rect class="cls-7" x="153.89" y="71.15" width="5.77" height="34.29" transform="matrix(0.28, -0.96, 0.96, 0.28, 28.31, 214.28)"/><polygon class="cls-7" points="169.23 106.89 136.3 97.34 137.91 91.79 170.83 101.34 169.23 106.89"/><polygon class="cls-7" points="162.67 116.96 133.1 108.38 134.71 102.83 164.27 111.41 162.67 116.96"/><rect class="cls-7" x="140.04" y="107.47" width="5.77" height="25.46" transform="translate(-12.34 223.97) rotate(-73.82)"/><rect class="cls-7" x="141.07" y="115.34" width="5.77" height="34.28" transform="translate(-23.38 233.83) rotate(-73.83)"/><rect class="cls-7" x="136.19" y="127.64" width="5.77" height="30.78" transform="translate(-37.04 236.77) rotate(-73.83)"/><polygon class="cls-7" points="153.21 162.11 120.29 152.56 121.9 147.02 154.82 156.57 153.21 162.11"/><polygon class="cls-7" points="165.36 163.42 193.72 171.64 203.06 139.45 174.69 131.22 165.36 163.42"/><path class="cls-4" d="M191.19,147.49c-.87,3-4.57,6.66-7.58,5.79s-4.19-5.94-3.32-8.95a5.67,5.67,0,1,1,10.9,3.16Z"/><path class="cls-4" d="M183.38,154.05a8.49,8.49,0,0,0-10.79,5.27l17.1,5A8.51,8.51,0,0,0,183.38,154.05Z"/><rect class="cls-7" x="196.37" y="85.55" width="5.78" height="30.12" transform="translate(47.12 263.95) rotate(-73.83)"/><rect class="cls-7" x="193.08" y="99.01" width="5.77" height="25.24" transform="translate(34.17 268.76) rotate(-73.83)"/><rect class="cls-6" x="189.37" y="109.68" width="5.77" height="30.12" transform="translate(18.92 274.67) rotate(-73.83)"/><path class="cls-4" d="M163.15,89a9.94,9.94,0,0,0-9.94-9.94H71.4c-5.23,0-9.47,3.91-9.47,8.74V194.54c0,4.83,4.24,8.74,9.47,8.74h81.81a9.94,9.94,0,0,0,9.94-9.94Z"/><rect class="cls-7" x="131.73" y="109.16" width="15.82" height="15.08"/><rect class="cls-7" x="131.73" y="129.5" width="15.82" height="15.07"/><rect class="cls-7" x="131.73" y="149.84" width="15.82" height="15.07"/><rect class="cls-6" x="70.27" y="174.9" width="53.33" height="5.42"/><rect class="cls-7" x="70.27" y="154.55" width="53.33" height="5.42"/><rect class="cls-7" x="70.27" y="134.21" width="53.33" height="5.42"/><rect class="cls-7" x="70.27" y="113.86" width="53.33" height="5.42"/><rect class="cls-7" x="131.73" y="170.17" width="15.82" height="15.07"/><path class="cls-4" d="M108.9,78.75h-5.74a3.68,3.68,0,0,1,3.34-5.25h2.4V70h-4.73a7.2,7.2,0,0,0-7.06,8.8H89.94a7.5,7.5,0,0,0,0,15h19Z"/><rect class="cls-7" x="70.27" y="174.9" width="38.64" height="5.42"/><rect class="cls-6" x="134.06" y="115.19" width="11.15" height="3.02" transform="translate(-41.62 132.92) rotate(-45)"/><rect class="cls-6" x="138.13" y="111.13" width="3.01" height="11.15" transform="translate(-41.62 132.92) rotate(-45)"/><rect class="cls-6" x="134.06" y="135.43" width="11.15" height="3.02" transform="translate(-55.93 138.85) rotate(-45)"/><rect class="cls-6" x="138.13" y="131.36" width="3.01" height="11.15" transform="translate(-55.93 138.85) rotate(-45)"/><rect class="cls-6" x="134.06" y="155.76" width="11.15" height="3.02"/><rect class="cls-6" x="134.06" y="176.1" width="11.14" height="3.02" transform="translate(-84.69 150.76) rotate(-45)"/><rect class="cls-6" x="138.13" y="172.03" width="3.01" height="11.15" transform="translate(-84.69 150.76) rotate(-45)"/><path class="cls-5" d="M163.15,194.73c0,4.84-4.24,8.76-9.49,8.76H64.15c-5.24,0-9.49-3.92-9.49-8.76V87.6c0-4.84,4.25-8.76,9.49-8.76h89.51c5.25,0,9.49,3.92,9.49,8.76Z"/><path class="cls-5" d="M127.87,78.75h-7.16a7.24,7.24,0,0,0-7.08-8.8h-9.46a7.2,7.2,0,0,0-7.06,8.8H89.94a7.5,7.5,0,0,0,0,15h37.93a7.5,7.5,0,1,0,0-15Zm-25.06-1.56a3.69,3.69,0,0,1,3.69-3.69h4.81a3.67,3.67,0,0,1,3.34,5.25H103.16A3.68,3.68,0,0,1,102.81,77.19Z"/><line class="cls-8" x1="48.09" y1="90.02" x2="48.09" y2="94.78"/><path class="cls-8" d="M70.27,71.57H57.41a9.32,9.32,0,0,0-9.32,9.32v5.54"/><line class="cls-8" x1="206.86" y1="177.09" x2="209.5" y2="167.53"/><polyline class="cls-8" points="175.01 187.44 201.95 194.88 205.91 180.54"/><circle class="cls-8" cx="111.93" cy="49.81" r="3.59"/><line class="cls-8" x1="201.57" y1="210.31" x2="210.06" y2="201.81"/><line class="cls-8" x1="210.25" y1="210.31" x2="201.64" y2="201.69"/></svg>